<svg xmlns="http://www.w3.org/2000/svg" width="720" height="1600" viewBox="0 0 720 1600">
<defs>
 <linearGradient id="sky" x1="0" y1="0" x2="0" y2="1"><stop offset="0" stop-color="#020713"/><stop offset=".52" stop-color="#061a34"/><stop offset="1" stop-color="#092747"/></linearGradient>
 <radialGradient id="moon" cx="35%" cy="30%" r="75%"><stop offset="0" stop-color="#fff5d7"/><stop offset=".55" stop-color="#efd39a"/><stop offset="1" stop-color="#b48754"/></radialGradient>
 <filter id="blur32" x="-80%" y="-80%" width="260%" height="260%"><feGaussianBlur stdDeviation="32"/></filter>
 <filter id="glow" x="-250%" y="-250%" width="600%" height="600%"><feGaussianBlur stdDeviation="1.8" result="b"/><feMerge><feMergeNode in="b"/><feMergeNode in="SourceGraphic"/></feMerge></filter>
 <pattern id="s1" width="118" height="132" patternUnits="userSpaceOnUse"><circle cx="12" cy="19" r="1" fill="#eaf4ff" opacity=".82"/><circle cx="48" cy="47" r=".8" fill="#fff" opacity=".55"/><circle cx="84" cy="22" r="1.2" fill="#eaf4ff" opacity=".64"/><circle cx="105" cy="91" r=".8" fill="#fff4d5" opacity=".7"/><circle cx="31" cy="109" r="1.1" fill="#eaf4ff" opacity=".56"/><circle cx="72" cy="76" r=".7" fill="#fff" opacity=".45"/><path d="M92 110h10M97 105v10" stroke="#fff2c6" stroke-width="1" stroke-linecap="round" opacity=".34"/></pattern>
 <pattern id="s2" width="173" height="157" patternUnits="userSpaceOnUse" patternTransform="rotate(8)"><circle cx="18" cy="57" r=".8" fill="#fff" opacity=".42"/><circle cx="66" cy="16" r="1.1" fill="#e9f3ff" opacity=".5"/><circle cx="133" cy="47" r=".9" fill="#fff4d5" opacity=".45"/><circle cx="151" cy="128" r="1.3" fill="#e9f3ff" opacity=".58"/><circle cx="47" cy="121" r=".7" fill="#fff" opacity=".42"/></pattern>
</defs>
<rect width="720" height="1600" fill="url(#sky)"/>
<ellipse cx="125" cy="630" rx="280" ry="430" fill="#2a557d" opacity=".14" filter="url(#blur32)"/><ellipse cx="570" cy="980" rx="270" ry="420" fill="#655f93" opacity=".1" filter="url(#blur32)"/><ellipse cx="360" cy="1450" rx="430" ry="230" fill="#52779f" opacity=".08" filter="url(#blur32)"/>
<rect width="720" height="1600" fill="url(#s1)" filter="url(#glow)"/><rect width="720" height="1600" fill="url(#s2)" filter="url(#glow)"/>
<g stroke="#fff2c6" stroke-width="1" stroke-linecap="round" opacity=".55"><path d="M95 210h18M104 201v18"/><path d="M620 320h20M630 310v20"/><path d="M157 430h14M164 423v14"/><path d="M548 750h18M557 741v18"/><path d="M123 902h18M132 893v18"/><path d="M635 1112h18M644 1103v18"/><path d="M216 1288h14M223 1281v14"/><path d="M516 1438h18M525 1429v18"/></g>
<circle cx="440" cy="650" r="150" fill="#f2d39a" opacity=".07" filter="url(#blur32)"/>
<path fill="url(#moon)" opacity=".92" fill-rule="evenodd" d="M440 535A115 115 0 1 0 440 765A115 115 0 1 0 440 535ZM492 515A115 115 0 1 1 492 745A115 115 0 1 1 492 515Z"/>
<g fill="#a97749" opacity=".09"><circle cx="402" cy="622" r="9"/><circle cx="423" cy="690" r="7"/><circle cx="382" cy="675" r="5"/><circle cx="416" cy="596" r="4"/></g>
<g fill="none" stroke="#edf5fb" stroke-width="2.2" stroke-linecap="round" stroke-linejoin="round" opacity=".92"><path d="M376 597C362 579 361 557 369 541L380 522L388 544C399 535 414 531 428 536L439 517L443 547C457 560 462 579 457 599"/><path d="M457 599C468 619 471 644 468 668C465 692 454 712 438 725"/><path d="M378 599C364 621 360 651 368 676C375 699 391 714 411 724"/><path d="M438 725C450 727 463 723 475 717"/><path d="M412 724C391 739 367 757 342 782C314 810 291 840 279 868C272 883 269 899 270 912"/><path d="M428 553C423 559 420 566 419 573"/><path d="M387 565C394 568 399 573 403 578"/><path d="M384 580C392 585 399 588 407 588C415 588 421 585 428 581"/><path d="M418 652C428 659 436 671 439 686"/></g><circle cx="410" cy="571" r="1.5" fill="#fff1c6" opacity=".9"/>
<g stroke="#fff2c6" stroke-width="1" stroke-linecap="round" opacity=".58"><path d="M557 584h16M565 576v16"/><path d="M332 716h14M339 709v14"/><path d="M530 756h12M536 750v12"/></g>
</svg>